<svg xmlns="http://www.w3.org/2000/svg" viewBox="0 0 512 512" role="img" aria-label="Dentin">
  <defs>
    <linearGradient id="bg" x1="0" y1="0" x2="0" y2="1">
      <stop offset="0%" stop-color="#12908E" />
      <stop offset="100%" stop-color="#0B5A5B" />
    </linearGradient>
    <linearGradient id="enamel" x1="0.3" y1="0" x2="0.7" y2="1">
      <stop offset="0%" stop-color="#FFFFFF" />
      <stop offset="100%" stop-color="#E8F5F3" />
    </linearGradient>
  </defs>

  <rect width="512" height="512" rx="114" fill="url(#bg)" />

  <!-- Enamel: the outer tooth -->
  <path
    fill="url(#enamel)"
    d="M256 104c-78 0-132 38-132 104 0 52 23 93 39 155 10 41 15 77 37 77 23 0 25-46 40-84 6-16 26-16 32 0 15 38 17 84 40 84 22 0 27-36 37-77 16-62 39-103 39-155 0-66-54-104-132-104Z"
  />

  <!-- Dentin: the layer beneath, where the value lives -->
  <path
    fill="#0E7C7B"
    opacity="0.92"
    d="M256 168c-46 0-76 22-76 60 0 30 13 54 22 90 6 24 9 45 21 45 13 0 14-27 23-49 4-9 16-9 20 0 9 22 10 49 23 49 12 0 15-21 21-45 9-36 22-60 22-90 0-38-30-60-76-60Z"
  />
</svg>
